<?xml version="1.0" encoding="iso-8859-1"?>
<!-- Generator: Adobe Illustrator 18.1.1, SVG Export Plug-In . SVG Version: 6.00 Build 0)  -->
<svg version="1.1" id="Capa_1" xmlns="http://www.w3.org/2000/svg" xmlns:xlink="http://www.w3.org/1999/xlink" x="0px" y="0px"
	 viewBox="0 0 26 26" style="enable-background:new 0 0 26 26;" xml:space="preserve">
<g>
	<path style="fill:#030104;" d="M0,3v20c0,1.656,1.344,3,3,3h20c1.656,0,3-1.344,3-3V3c0-1.656-1.344-3-3-3H3C1.344,0,0,1.344,0,3z
		 M2,10V7h8v3H2z M1.85,3.5c0-0.911,0.738-1.65,1.65-1.65S5.15,2.589,5.15,3.5S4.412,5.15,3.5,5.15S1.85,4.411,1.85,3.5z M6.85,3.5
		c0-0.911,0.738-1.65,1.65-1.65s1.65,0.739,1.65,1.65S9.412,5.15,8.5,5.15S6.85,4.411,6.85,3.5z M23,2c0.551,0,1,0.449,1,1v20
		c0,0.551-0.449,1-1,1H12V2H23z"/>
</g>
<g>
</g>
<g>
</g>
<g>
</g>
<g>
</g>
<g>
</g>
<g>
</g>
<g>
</g>
<g>
</g>
<g>
</g>
<g>
</g>
<g>
</g>
<g>
</g>
<g>
</g>
<g>
</g>
<g>
</g>
</svg>
