<?xml version="1.0" encoding="iso-8859-1"?>
<!-- Generator: Adobe Illustrator 19.0.0, SVG Export Plug-In . SVG Version: 6.00 Build 0)  -->
<svg version="1.1" id="Capa_1" xmlns="http://www.w3.org/2000/svg" xmlns:xlink="http://www.w3.org/1999/xlink" x="0px" y="0px"
	 viewBox="0 0 294 294" style="enable-background:new 0 0 294 294;" xml:space="preserve">
<g>
	<g>
		<path d="M272.55,207.043c0.003-23.907,0.008-70.462,0.006-70.753c-0.366-46.864-54.347-70.639-109.853-74.746v-14.79
			c0-4.694-3.806-8.5-8.5-8.5h-17.737c-4.694,0-8.5,3.806-8.5,8.5v14.734c-39.93,2.779-73.831,15.218-92.706,34.453
			c-11.644,11.866-17.409,25.807-17.136,41.438l-0.009,69.664H0v48.703h294v-48.703H272.55z M35.123,137.142
			c-0.206-10.93,3.922-20.786,12.271-29.294c18.13-18.475,55.596-29.952,97.778-29.952c54.627,0,110.084,20.104,110.384,58.485
			c0.002,0.747-0.004,50.37-0.006,70.662H35.115l0.009-69.74L35.123,137.142z M277,238.745H17v-14.703h1.113h254.435H277V238.745z"
			/>
	</g>
	<g>
	</g>
	<g>
	</g>
	<g>
	</g>
	<g>
	</g>
	<g>
	</g>
	<g>
	</g>
	<g>
	</g>
	<g>
	</g>
	<g>
	</g>
	<g>
	</g>
	<g>
	</g>
	<g>
	</g>
	<g>
	</g>
	<g>
	</g>
	<g>
	</g>
</g>
<g>
</g>
<g>
</g>
<g>
</g>
<g>
</g>
<g>
</g>
<g>
</g>
<g>
</g>
<g>
</g>
<g>
</g>
<g>
</g>
<g>
</g>
<g>
</g>
<g>
</g>
<g>
</g>
<g>
</g>
</svg>
